<svg width="1200" height="1200" viewBox="0 0 1200 1200" fill="none" xmlns="http://www.w3.org/2000/svg">
<path fill-rule="evenodd" clip-rule="evenodd" d="M665.248 269.5C636.38 219.5 564.211 219.5 535.344 269.5L532.906 273.723C532.329 274.721 531.776 275.732 531.246 276.755C529.744 279.301 528.228 281.819 526.697 284.312L511.335 307.716C510.999 308.227 510.67 308.743 510.347 309.262C473.508 362.078 430.939 402.636 388.838 442.548L388.648 442.727C386.515 444.749 384.366 446.782 382.205 448.826C321.032 506.678 250 573.854 250 677.615C250 788.897 341.107 878.025 452.148 878.025C461.201 878.025 470.12 877.433 478.865 876.286C468.616 919.541 499.923 967.5 551.075 967.5H650.35C701.458 967.5 732.755 919.622 722.586 876.397C731.056 877.471 739.686 878.025 748.444 878.025C859.485 878.025 950.592 788.897 950.592 677.615C950.592 573.854 879.56 506.678 818.387 448.826C816.162 446.721 813.949 444.629 811.754 442.547C769.651 402.634 727.08 362.075 690.24 309.255C689.919 308.738 689.591 308.225 689.257 307.716L673.902 284.324C672.368 281.826 670.848 279.301 669.343 276.75C668.814 275.729 668.261 274.719 667.685 273.721L665.248 269.5ZM644.113 337.349L628.323 313.293C626.137 309.744 623.975 306.147 621.84 302.497C621.565 301.9 621.258 301.308 620.92 300.722L618.482 296.5C610.399 282.5 590.192 282.5 582.109 296.5L579.672 300.722C579.333 301.309 579.026 301.902 578.75 302.5C576.618 306.144 574.46 309.737 572.277 313.28L556.478 337.349C556.206 337.764 555.951 338.183 555.714 338.606C515.054 397.304 468.182 441.738 425.989 481.737C359.117 545.131 304 597.382 304 677.615C304 758.475 370.328 824.025 452.148 824.025C497.631 824.025 538.327 803.769 565.503 771.887C566.293 771.2 567.069 770.48 567.832 769.726C585.823 751.946 614.929 752.104 632.92 769.884C633.65 770.605 634.392 771.296 635.147 771.955C662.323 803.798 702.993 824.025 748.444 824.025C830.264 824.025 896.592 758.475 896.592 677.615C896.592 597.382 841.475 545.131 774.603 481.737C732.409 441.737 685.536 397.302 644.875 338.602C644.639 338.18 644.385 337.762 644.113 337.349ZM551.075 913.5C533.224 913.5 524.316 891.891 536.979 879.311L586.617 830.002C594.417 822.254 607.008 822.254 614.807 830.002L664.445 879.311C677.109 891.891 668.2 913.5 650.35 913.5H551.075Z" fill="#FFB1B9"/>
</svg>
